<svg width="28" height="21" viewBox="0 0 28 21" fill="none" xmlns="http://www.w3.org/2000/svg">
<path d="M9.99127 13.5H10.4913V14C10.4913 15.0609 10.0698 16.0783 9.3197 16.8284C8.56955 17.5786 7.55214 18 6.49127 18C6.22606 18 5.9717 18.1054 5.78417 18.2929C5.59663 18.4804 5.49127 18.7348 5.49127 19C5.49127 19.2652 5.59663 19.5196 5.78417 19.7071C5.9717 19.8946 6.22606 20 6.49127 20C8.08206 19.9983 9.60723 19.3657 10.7321 18.2408C11.8569 17.116 12.4896 15.5908 12.4913 14V3C12.4913 2.46957 12.2806 1.96086 11.9055 1.58579C11.5304 1.21071 11.0217 1 10.4913 1H2.99127C2.46084 1 1.95213 1.21071 1.57706 1.58579C1.20199 1.96086 0.991272 2.46957 0.991272 3V11C0.991272 11.5304 1.20199 12.0391 1.57706 12.4142C1.95213 12.7893 2.46084 13 2.99127 13H9.99127V13.5ZM9.99127 13.5V14C9.99127 14.9283 9.62252 15.8185 8.96615 16.4749C8.30977 17.1313 7.41953 17.5 6.49127 17.5C6.09345 17.5 5.71192 17.658 5.43061 17.9393C5.14931 18.2206 4.99127 18.6022 4.99127 19C4.99127 19.3978 5.14931 19.7794 5.43061 20.0607C5.71192 20.342 6.09345 20.5 6.49127 20.5H6.49179C8.21501 20.4982 9.86714 19.8129 11.0856 18.5944C12.3041 17.3759 12.9895 15.7237 12.9913 14.0005V14V3C12.9913 2.33696 12.7279 1.70107 12.259 1.23223C11.7902 0.763392 11.1543 0.5 10.4913 0.5H2.99127C2.32823 0.5 1.69235 0.763392 1.2235 1.23223C0.754664 1.70107 0.491272 2.33696 0.491272 3V11C0.491272 11.663 0.754664 12.2989 1.2235 12.7678C1.69235 13.2366 2.32823 13.5 2.99127 13.5H9.99127ZM24.4913 13.5H24.9913V14C24.9913 15.0609 24.5698 16.0783 23.8197 16.8284C23.0696 17.5786 22.0521 18 20.9913 18C20.7261 18 20.4717 18.1054 20.2842 18.2929C20.0966 18.4804 19.9913 18.7348 19.9913 19C19.9913 19.2652 20.0966 19.5196 20.2842 19.7071C20.4717 19.8946 20.7261 20 20.9913 20C22.5821 19.9983 24.1072 19.3657 25.2321 18.2408C26.3569 17.116 26.9896 15.5908 26.9913 14V3C26.9913 2.46957 26.7806 1.96086 26.4055 1.58579C26.0304 1.21071 25.5217 1 24.9913 1H17.4913C16.9608 1 16.4521 1.21071 16.0771 1.58579C15.702 1.96086 15.4913 2.46957 15.4913 3V11C15.4913 11.5304 15.702 12.0391 16.0771 12.4142C16.4521 12.7893 16.9608 13 17.4913 13H24.4913V13.5ZM24.4913 13.5V14C24.4913 14.9283 24.1225 15.8185 23.4661 16.4749C22.8098 17.1313 21.9195 17.5 20.9913 17.5C20.5934 17.5 20.2119 17.658 19.9306 17.9393C19.6493 18.2206 19.4913 18.6022 19.4913 19C19.4913 19.3978 19.6493 19.7794 19.9306 20.0607C20.2119 20.342 20.5934 20.5 20.9913 20.5H20.9918C22.715 20.4982 24.3671 19.8129 25.5856 18.5944C26.8041 17.3759 27.4895 15.7237 27.4913 14.0005V14V3C27.4913 2.33696 27.2279 1.70107 26.759 1.23223C26.2902 0.763392 25.6543 0.5 24.9913 0.5H17.4913C16.8282 0.5 16.1923 0.763392 15.7235 1.23223C15.2547 1.70107 14.9913 2.33696 14.9913 3V11C14.9913 11.663 15.2547 12.2989 15.7235 12.7678C16.1923 13.2366 16.8282 13.5 17.4913 13.5H24.4913ZM9.99127 10.5H3.49127V3.5H9.99127V10.5ZM24.4913 10.5H17.9913V3.5H24.4913V10.5Z" fill="#2F3E46" stroke="#2F3E46"/>
</svg>
