<svg width="26" height="19" viewBox="0 0 26 19" fill="none" xmlns="http://www.w3.org/2000/svg">
<path d="M9.49127 0H1.99127C1.46084 0 0.952131 0.210714 0.577058 0.585786C0.201986 0.960859 -0.00872803 1.46957 -0.00872803 2V10C-0.00872803 10.5304 0.201986 11.0391 0.577058 11.4142C0.952131 11.7893 1.46084 12 1.99127 12H9.49127V13C9.49127 14.0609 9.06984 15.0783 8.3197 15.8284C7.56955 16.5786 6.55214 17 5.49127 17C5.22606 17 4.9717 17.1054 4.78417 17.2929C4.59663 17.4804 4.49127 17.7348 4.49127 18C4.49127 18.2652 4.59663 18.5196 4.78417 18.7071C4.9717 18.8946 5.22606 19 5.49127 19C7.08206 18.9983 8.60723 18.3657 9.73209 17.2408C10.8569 16.116 11.4896 14.5908 11.4913 13V2C11.4913 1.46957 11.2806 0.960859 10.9055 0.585786C10.5304 0.210714 10.0217 0 9.49127 0ZM9.49127 10H1.99127V2H9.49127V10ZM23.9913 0H16.4913C15.9608 0 15.4521 0.210714 15.0771 0.585786C14.702 0.960859 14.4913 1.46957 14.4913 2V10C14.4913 10.5304 14.702 11.0391 15.0771 11.4142C15.4521 11.7893 15.9608 12 16.4913 12H23.9913V13C23.9913 14.0609 23.5698 15.0783 22.8197 15.8284C22.0696 16.5786 21.0521 17 19.9913 17C19.7261 17 19.4717 17.1054 19.2842 17.2929C19.0966 17.4804 18.9913 17.7348 18.9913 18C18.9913 18.2652 19.0966 18.5196 19.2842 18.7071C19.4717 18.8946 19.7261 19 19.9913 19C21.5821 18.9983 23.1072 18.3657 24.2321 17.2408C25.3569 16.116 25.9896 14.5908 25.9913 13V2C25.9913 1.46957 25.7806 0.960859 25.4055 0.585786C25.0304 0.210714 24.5217 0 23.9913 0ZM23.9913 10H16.4913V2H23.9913V10Z" fill="#2F3E46"/>
</svg>
